<?xml version="1.0" encoding="UTF-8"?>
<svg width="800px" height="400px" viewBox="0 0 800 400" version="1.1" xmlns="http://www.w3.org/2000/svg">
  <title>World Map Dots</title>
  <g stroke="none" fill="none" fill-rule="evenodd">
    <!-- North America -->
    <g fill="#FFFFFF" fill-opacity="0.3">
      <circle cx="150" cy="120" r="2"></circle>
      <circle cx="165" cy="110" r="2"></circle>
      <circle cx="130" cy="130" r="2"></circle>
      <circle cx="145" cy="140" r="2"></circle>
      <circle cx="160" cy="150" r="2"></circle>
      <circle cx="175" cy="120" r="2"></circle>
      <circle cx="190" cy="130" r="2"></circle>
      <circle cx="140" cy="100" r="2"></circle>
      <circle cx="120" cy="140" r="2"></circle>
      <circle cx="135" cy="160" r="2"></circle>
      <circle cx="150" cy="170" r="2"></circle>
      <circle cx="165" cy="180" r="2"></circle>
      <circle cx="180" cy="160" r="2"></circle>
      <circle cx="195" cy="150" r="2"></circle>
      <circle cx="210" cy="140" r="2"></circle>
      <circle cx="190" cy="110" r="2"></circle>
      <circle cx="205" cy="120" r="2"></circle>
      <circle cx="220" cy="130" r="2"></circle>
    </g>
    
    <!-- South America -->
    <g fill="#FFFFFF" fill-opacity="0.3">
      <circle cx="210" cy="230" r="2"></circle>
      <circle cx="225" cy="240" r="2"></circle>
      <circle cx="240" cy="250" r="2"></circle>
      <circle cx="255" cy="260" r="2"></circle>
      <circle cx="240" cy="270" r="2"></circle>
      <circle cx="225" cy="280" r="2"></circle>
      <circle cx="210" cy="290" r="2"></circle>
      <circle cx="225" cy="300" r="2"></circle>
      <circle cx="240" cy="310" r="2"></circle>
      <circle cx="220" cy="320" r="2"></circle>
      <circle cx="205" cy="270" r="2"></circle>
      <circle cx="220" cy="260" r="2"></circle>
      <circle cx="235" cy="230" r="2"></circle>
      <circle cx="250" cy="240" r="2"></circle>
    </g>
    
    <!-- Europe -->
    <g fill="#FFFFFF" fill-opacity="0.3">
      <circle cx="380" cy="100" r="2"></circle>
      <circle cx="395" cy="110" r="2"></circle>
      <circle cx="410" cy="105" r="2"></circle>
      <circle cx="425" cy="115" r="2"></circle>
      <circle cx="440" cy="105" r="2"></circle>
      <circle cx="380" cy="120" r="2"></circle>
      <circle cx="395" cy="125" r="2"></circle>
      <circle cx="410" cy="120" r="2"></circle>
      <circle cx="425" cy="130" r="2"></circle>
      <circle cx="440" cy="125" r="2"></circle>
      <circle cx="455" cy="115" r="2"></circle>
      <circle cx="470" cy="110" r="2"></circle>
      <circle cx="455" cy="130" r="2"></circle>
      <circle cx="370" cy="100" r="2"></circle>
      <circle cx="385" cy="95" r="2"></circle>
      <circle cx="400" cy="90" r="2"></circle>
    </g>
    
    <!-- Africa -->
    <g fill="#FFFFFF" fill-opacity="0.3">
      <circle cx="395" cy="160" r="2"></circle>
      <circle cx="410" cy="170" r="2"></circle>
      <circle cx="425" cy="180" r="2"></circle>
      <circle cx="440" cy="190" r="2"></circle>
      <circle cx="455" cy="200" r="2"></circle>
      <circle cx="425" cy="210" r="2"></circle>
      <circle cx="410" cy="220" r="2"></circle>
      <circle cx="425" cy="230" r="2"></circle>
      <circle cx="440" cy="240" r="2"></circle>
      <circle cx="410" cy="250" r="2"></circle>
      <circle cx="425" cy="250" r="2"></circle>
      <circle cx="380" cy="180" r="2"></circle>
      <circle cx="395" cy="190" r="2"></circle>
      <circle cx="410" cy="200" r="2"></circle>
    </g>
    
    <!-- Asia -->
    <g fill="#FFFFFF" fill-opacity="0.3">
      <circle cx="510" cy="110" r="2"></circle>
      <circle cx="525" cy="120" r="2"></circle>
      <circle cx="540" cy="130" r="2"></circle>
      <circle cx="555" cy="120" r="2"></circle>
      <circle cx="570" cy="110" r="2"></circle>
      <circle cx="585" cy="120" r="2"></circle>
      <circle cx="600" cy="110" r="2"></circle>
      <circle cx="510" cy="140" r="2"></circle>
      <circle cx="525" cy="150" r="2"></circle>
      <circle cx="540" cy="160" r="2"></circle>
      <circle cx="555" cy="150" r="2"></circle>
      <circle cx="570" cy="140" r="2"></circle>
      <circle cx="585" cy="150" r="2"></circle>
      <circle cx="600" cy="140" r="2"></circle>
      <circle cx="615" cy="130" r="2"></circle>
      <circle cx="630" cy="140" r="2"></circle>
      <circle cx="645" cy="130" r="2"></circle>
      <circle cx="495" cy="130" r="2"></circle>
      <circle cx="480" cy="140" r="2"></circle>
      <circle cx="465" cy="150" r="2"></circle>
    </g>
    
    <!-- Australia -->
    <g fill="#FFFFFF" fill-opacity="0.3">
      <circle cx="650" cy="260" r="2"></circle>
      <circle cx="665" cy="270" r="2"></circle>
      <circle cx="680" cy="280" r="2"></circle>
      <circle cx="695" cy="270" r="2"></circle>
      <circle cx="710" cy="260" r="2"></circle>
      <circle cx="650" cy="290" r="2"></circle>
      <circle cx="665" cy="300" r="2"></circle>
      <circle cx="680" cy="310" r="2"></circle>
      <circle cx="695" cy="300" r="2"></circle>
      <circle cx="710" cy="290" r="2"></circle>
      <circle cx="640" cy="270" r="2"></circle>
      <circle cx="655" cy="280" r="2"></circle>
      <circle cx="670" cy="290" r="2"></circle>
    </g>
    
    <!-- Connection Lines - Supply Chain Visualization -->
    <g stroke="#00F0FF" stroke-opacity="0.2" stroke-width="1" stroke-dasharray="4,4">
      <path d="M150,120 C300,60 500,90 600,110"></path>
      <path d="M440,125 C500,150 550,170 680,280"></path>
      <path d="M165,180 C250,240 300,210 425,180"></path>
      <path d="M600,110 C550,180 500,250 410,250"></path>
      <path d="M210,230 C300,180 400,170 510,140"></path>
    </g>
    
    <!-- Supply Chain Nodes -->
    <g fill="#00F0FF">
      <circle cx="150" cy="120" r="4"></circle>
      <circle cx="440" cy="125" r="4"></circle>
      <circle cx="600" cy="110" r="4"></circle>
      <circle cx="680" cy="280" r="4"></circle>
      <circle cx="165" cy="180" r="4"></circle>
      <circle cx="425" cy="180" r="4"></circle>
      <circle cx="410" cy="250" r="4"></circle>
      <circle cx="210" cy="230" r="4"></circle>
      <circle cx="510" cy="140" r="4"></circle>
    </g>
  </g>
</svg> 